<svg xmlns="http://www.w3.org/2000/svg" aria-hidden="true" style="position:absolute;width:0;height:0;overflow:hidden"><defs><symbol id="icon-heart" viewBox="0 0 28 32"><path d="m6.321.382.064.307.003-.001L6.32.382zM.507 6.537l.305.073.001-.003-.306-.069zm.012 4.495-.307.067zm3.989 7.226.223-.221zm6.08 4.213.133-.284-.002-.001-.131.285zm1.354.636h.314v-.199l-.18-.085zm0 8.579h-.314V32h.314zm1.45 0V32h.314v-.314zm0-8.108.088-.301-.402-.117v.418zm.363.106-.088.301h.002l.086-.302zm.725 0 .086.302h.002l-.088-.301zm.363-.106h.314v-.418l-.402.117zm0 8.108h-.314V32h.314zm1.45 0V32h.314v-.314zm0-8.591-.13-.286-.184.084v.202zm1.294-.588.13.286.001-.001-.131-.285zm6.08-4.19.223.22zm4.255-9.639-.314-.001v.001zM22.712.593l-.103.296.003.001.1-.297zM20.403.335l.003.314-.003-.314zm-2.659.376L17.65.412l-.003.001.097.298zm-3.143 1.636-.199-.242-.003.002.202.24zm-.447.377-.187.252.199.147.189-.159zm-.653-.483.187-.252h-.001zM8.086.323 8.099.01h-.002l-.011.314zm.991 1.518.057-.308h-.001l-.057.309zm1.559.435.119-.29-.005-.002-.114.292zm2.575 1.613-.216.227.001.001.215-.228zm1.898-.071.209.234.002-.001-.211-.232zm11.096 2.624-.303.08v.001l.303-.082zm.266 1.778-.314.008v.006zm-1.632 1.718-.111-.293zm-4.351.965-.035-.312h-.001l.036.312zm-1.85.482-.184-.254-.004.003.188.252zm-1.1 5.732-.226-.218-.004.004-.004.004.233.21zm-1.003-.024.219-.225zm-.81-6.379-.23.213.001.001.229-.214zm-1.897-1.035.139-.281-.005-.002-.133.284zM11.096 8.09l.191-.249-.003-.002-.188.251zM4.23 4.783l-.051.31h.003l.048-.31zm-1.342-.235-.189.25.024.019.028.013.137-.282zm1.137-1.436.207.236.002-.002-.209-.234zm1.051 3.272.076-.304H5.15zm3.892 1.941-.187.252.002.001.185-.253zm1.511 1.107.187-.252zm3.167 1.777.123-.289-.002-.001-.121.29zm1.052.565-.245.196.005.006.24-.202zm.375 5.731-.284.133zm3.541.565-.224-.22-.003.003.227.216zm1.983-5.731.026.313h.002l-.028-.312zm4.448-.954.107.295.002-.001-.109-.294zm1.148-.341-.259.177.018.026.022.022zm-1.305 3.331-.27-.16-.001.002.271.158zm-2.793 3.471.214.229zm-7.035 4.131-.102-.297-.002.001.104.296zm-.942.33-.105.296.104.037.104-.036-.104-.296zm-.931-.33.105-.296-.004-.002-.1.297zm-7.24-4.354.218-.225-.001-.001-.217.226zM1.788 9.632l-.312.034zm.339-3.531.268.163.002-.004-.271-.159zM6.257.075C3.255.704.95 3.165.201 6.468l.612.139c.702-3.1 2.845-5.346 5.572-5.917zM.202 6.464C.061 7.058-.003 7.904 0 8.746c.003.843.073 1.712.213 2.353l.613-.133C.699 10.383.631 9.563.628 8.744c-.003-.821.06-1.61.185-2.134zm.011 4.635c.605 2.779 1.953 5.245 4.073 7.38l.445-.442c-2.039-2.054-3.326-4.414-3.905-7.072zm4.072 7.38c1.889 1.911 3.553 3.074 6.172 4.278l.262-.57c-2.554-1.174-4.154-2.294-5.988-4.149zm6.17 4.276 1.354.636.267-.568-1.354-.636zm2.849 1.124.363.106.176-.602-.363-.106zm.365.106c.262.075.636.075.898 0l-.173-.603a1.201 1.201 0 0 1-.553 0zm.899 0 .363-.106-.176-.602-.363.106zm1.855-.604 1.293-.588-.26-.571-1.293.588zm1.295-.589c2.533-1.168 4.378-2.436 6.172-4.254l-.447-.441c-1.736 1.759-3.517 2.986-5.988 4.125zm6.172-4.255c2.865-2.909 4.345-6.234 4.345-9.859h-.627c0 3.436-1.397 6.608-4.165 9.418zm4.345-9.857c.012-3.981-2.081-7.262-5.424-8.383l-.2.595c3.04 1.02 5.008 4.024 4.996 7.787l.627.002zM22.815.297C22.086.044 21.692.009 20.4.021l.006.627c1.271-.012 1.578.024 2.203.242l.206-.593zM20.4.021c-.671.006-1.101.02-1.494.077-.397.057-.746.154-1.256.314l.187.599c.505-.158.814-.243 1.158-.292.347-.05.739-.065 1.41-.07l-.006-.627zm-2.753.392c-1.225.398-2.435 1.026-3.245 1.692l.398.485c.737-.605 1.872-1.201 3.04-1.58zm-3.248 1.694-.447.377.404.48.447-.377zm-.059.364-.653-.482-.373.505.653.482zm-.653-.483C11.957.716 10.181.094 8.099.009l-.026.627c1.955.08 3.612.658 5.242 1.858l.372-.505zM8.097.009A16.486 16.486 0 0 0 7.031.008c-.317.01-.611.031-.777.068l.136.613c.1-.022.338-.043.662-.053.313-.01.681-.01 1.025.001L8.098.01zm.923 2.14c.489.091 1.159.285 1.503.419l.228-.585a10.66 10.66 0 0 0-1.616-.452zm1.497.418c.364.149.863.421 1.34.72.478.3.907.61 1.138.83l.432-.455c-.277-.263-.749-.6-1.237-.906-.491-.308-1.024-.6-1.434-.769zm2.479 1.55c.198.187.378.344.551.452.178.111.369.184.585.176.211-.008.402-.093.584-.21.181-.117.378-.282.603-.483l-.418-.468a4.66 4.66 0 0 1-.524.423c-.135.087-.215.109-.269.111-.049.002-.116-.011-.227-.081a3.185 3.185 0 0 1-.453-.377zm2.324-.066c1.345-1.219 3.53-2.061 5.313-2.061v-.627c-1.94 0-4.275.9-5.735 2.223zm5.313-2.061c2.358 0 4.561 1.854 5.269 4.533l.607-.16c-.767-2.9-3.181-5-5.876-5zm5.269 4.534c.127.472.244 1.248.255 1.703l.627-.016a9.47 9.47 0 0 0-.277-1.851zm.256 1.71c.012.272.017.442-.001.571a.358.358 0 0 1-.094.221c-.062.065-.174.141-.399.244-.222.102-.521.217-.935.374l.223.587c.408-.155.729-.278.975-.391.243-.112.445-.228.591-.382a.977.977 0 0 0 .261-.568c.027-.196.018-.427.006-.685l-.627.029zm-1.43 1.411c-1.298.494-2.383.737-4.274.946l.069.624c1.928-.214 3.067-.466 4.428-.984zm-4.276.946c-.607.07-.998.125-1.286.201a1.968 1.968 0 0 0-.711.339l.367.509c.161-.117.284-.183.503-.241.238-.063.585-.113 1.198-.184zm-2.001.543a2.571 2.571 0 0 0-.529.499 1.93 1.93 0 0 0-.325.689c-.139.525-.168 1.274-.168 2.465h.627c0-1.21.032-1.873.147-2.304.055-.205.126-.349.218-.47.094-.124.22-.239.404-.375zm-1.021 3.652c0 .905-.006 1.425-.034 1.743-.028.322-.073.358-.084.37l.452.435c.17-.177.228-.405.257-.751.03-.35.036-.901.036-1.797h-.627zm-.125 2.121c-.112.125-.351.156-.551-.039l-.438.45c.404.394 1.06.449 1.455.008zm-.551-.039a.21.21 0 0 1-.062-.083 1.121 1.121 0 0 1-.051-.294c-.03-.349-.034-.967-.034-2.163h-.627c0 1.181.003 1.834.036 2.218.017.193.043.345.093.472.056.14.132.228.207.301l.438-.45zm-.147-2.541c0-1.311-.017-2.109-.102-2.645a2.386 2.386 0 0 0-.2-.687 1.99 1.99 0 0 0-.351-.495l-.458.429c.111.118.186.22.245.34.059.122.108.278.144.511.075.478.094 1.222.094 2.548zm-.651-3.825a.794.794 0 0 0-.126-.104 2.825 2.825 0 0 0-.153-.098c-.116-.07-.268-.156-.442-.25-.349-.189-.8-.421-1.268-.651l-.277.563c.463.228.906.456 1.246.64a9.17 9.17 0 0 1 .537.313c.035.024.035.027.023.014l.461-.426zm-1.995-1.107c-1.04-.489-2.07-1.09-2.674-1.554l-.382.498c.653.501 1.726 1.124 2.789 1.624zm-2.677-1.556C9.764 6.701 8.65 5.956 7.595 5.448c-1.061-.511-2.051-.777-3.317-.975l-.097.62c1.224.191 2.15.443 3.141.92.997.481 2.071 1.195 3.585 2.328l.376-.502zM4.281 4.474a88.85 88.85 0 0 1-1.293-.224l-.014-.003c-.017-.004.016.002.052.019l-.275.564a.277.277 0 0 0 .074.026l.034.008.091.018.297.053c.245.043.575.099.932.158l.102-.619zm-1.203-.176a.28.28 0 0 1 .111.196c.004.042-.004.07-.004.072-.002.006.002-.009.026-.05.044-.078.122-.192.23-.328.214-.271.512-.595.791-.839l-.413-.472a7.41 7.41 0 0 0-.871.923c-.116.147-.217.29-.284.409a.83.83 0 0 0-.084.194.417.417 0 0 0-.014.153c.007.069.038.17.135.244zm1.155-.952C5.554 2.171 7.048 1.788 9.02 2.149l.113-.617c-2.137-.392-3.834.025-5.318 1.345zm.768 3.342c1.184.294 2.537.967 3.781 1.889l.374-.504c-1.294-.96-2.722-1.676-4.003-1.994zm3.782 1.891c.532.389 1.208.882 1.509 1.105l.373-.504c-.303-.224-.981-.719-1.513-1.107zm1.51 1.105c.832.617 2.196 1.382 3.233 1.815l.242-.579c-.994-.415-2.313-1.156-3.101-1.74zm3.23 1.813c.241.103.475.214.656.311.091.048.165.091.218.126.065.042.07.053.056.036l.49-.392a.867.867 0 0 0-.205-.171 3.769 3.769 0 0 0-.264-.153c-.2-.107-.45-.225-.704-.334l-.247.577zm.935.479c-.026-.031-.028-.051-.022-.03a.72.72 0 0 1 .021.097c.016.1.03.25.041.462.022.423.031 1.063.031 1.987h.627c0-.924-.009-1.579-.032-2.02a5.51 5.51 0 0 0-.048-.529 1.342 1.342 0 0 0-.042-.186.538.538 0 0 0-.097-.186l-.48.404zm.071 2.516c0 1.109.009 1.772.043 2.211.035.451.099.687.216.936l.568-.267c-.077-.163-.127-.321-.159-.718-.032-.409-.041-1.046-.041-2.162h-.627zm.26 3.147c.22.467.517.828.912 1.07.394.241.86.346 1.39.346v-.627c-.448 0-.792-.089-1.063-.254-.27-.165-.492-.421-.671-.802zm2.302 1.415c.347 0 .658-.052.951-.181s.549-.325.799-.587l-.454-.433c-.209.22-.4.359-.597.445s-.417.128-.699.128zm1.747-.764c.139-.141.261-.284.36-.459a1.96 1.96 0 0 0 .21-.612c.087-.464.101-1.141.101-2.255h-.627c0 1.134-.016 1.745-.09 2.14a1.33 1.33 0 0 1-.14.42 1.524 1.524 0 0 1-.26.326zm.67-3.327c0-.643-.001-1.108.018-1.453.02-.354.06-.53.111-.625.034-.063.078-.106.218-.143.165-.043.395-.061.767-.091l-.052-.625c-.341.028-.643.049-.875.11-.256.067-.474.194-.612.454-.122.227-.164.526-.184.885-.021.368-.019.855-.019 1.489zm1.116-2.312c1.474-.132 3.302-.525 4.528-.971l-.215-.59c-1.168.425-2.942.808-4.369.936l.056.625zm4.53-.971c.297-.11.572-.202.772-.261.101-.03.178-.05.227-.06l.031-.006s-.019.002-.046-.002a.306.306 0 0 1-.204-.129l.518-.354c-.045-.066-.103-.098-.138-.114s-.067-.021-.086-.024a.471.471 0 0 0-.088-.003.813.813 0 0 0-.115.018c-.074.015-.17.041-.277.073-.217.064-.505.161-.811.274l.218.588zm.82-.411a.283.283 0 0 1-.075-.126.225.225 0 0 1-.007-.043l-.005.035c-.01.058-.032.148-.068.268-.071.237-.185.556-.322.905-.275.7-.627 1.482-.88 1.906l.539.321c.279-.47.646-1.289.924-1.998.14-.356.261-.694.339-.954.039-.129.07-.247.086-.343a.84.84 0 0 0 .014-.154.453.453 0 0 0-.014-.104.355.355 0 0 0-.094-.163l-.438.45zm-1.357 2.947c-.83 1.42-1.475 2.22-2.736 3.401l.429.458c1.302-1.22 1.986-2.067 2.849-3.542zm-2.736 3.401c-1.826 1.708-4.349 3.181-6.922 4.063l.203.594c2.648-.907 5.25-2.423 7.148-4.199zm-6.924 4.064-.943.33.207.592.943-.33zm-.735.33-.931-.33-.209.591.931.33zm-.935-.331c-2.75-.927-5.175-2.398-7.122-4.283l-.436.451c2.017 1.952 4.524 3.471 7.358 4.426zm-7.123-4.284c-2.468-2.369-3.746-4.857-4.063-7.798l-.624.067c.335 3.107 1.693 5.727 4.253 8.184zM2.1 9.598c-.057-.537-.044-1.282.02-1.954.032-.334.075-.644.127-.894.054-.263.109-.423.148-.487l-.537-.325c-.1.165-.172.42-.226.686a9.518 9.518 0 0 0-.137.961c-.066.697-.083 1.487-.019 2.08zm.297-3.338a.237.237 0 0 1-.112.103c-.012.005-.013.004.005 0 .034-.006.094-.011.184-.012.177-.002.424.012.711.04.573.056 1.272.166 1.817.297l.147-.61a15.188 15.188 0 0 0-1.903-.312 7.753 7.753 0 0 0-.78-.043 1.769 1.769 0 0 0-.286.022.67.67 0 0 0-.139.039.387.387 0 0 0-.185.157l.541.318zm9.231 16.847v8.579h.627v-8.579zM11.942 32h1.45v-.627h-1.45zm1.764-.314v-8.109h-.627v8.109zm.823-8.108v8.109h.627v-8.109zM14.843 32h1.45v-.627h-1.45zm1.764-.314v-8.591h-.627v8.591z"/><path d="M6.321.382C3.456.982 1.232 3.336.507 6.537.241 7.655.253 9.809.519 11.033c.592 2.719 1.91 5.131 3.989 7.226 1.861 1.883 3.493 3.025 6.08 4.213l1.354.636v8.579h1.45v-8.109l.363.106c.206.059.52.059.725 0l.363-.106v8.109h1.45v-8.591l1.293-.588c2.502-1.153 4.315-2.401 6.08-4.19 2.816-2.86 4.255-6.108 4.255-9.639.012-3.872-2.019-7.014-5.21-8.085-.677-.235-1.027-.271-2.309-.259-1.342.012-1.644.059-2.659.377-1.197.388-2.369 1-3.143 1.636l-.447.377-.653-.482C11.82 1.007 10.103.407 8.085.325c-.701-.024-1.499 0-1.765.059zm2.756 1.459c.508.094 1.197.294 1.559.435.774.318 2.067 1.13 2.575 1.612.786.741 1.003.73 1.898-.071 1.402-1.271 3.663-2.142 5.524-2.142 2.526 0 4.835 1.977 5.572 4.766a9.15 9.15 0 0 1 .266 1.777c.048 1.059.012 1.095-1.632 1.718-1.33.506-2.442.753-4.351.965-1.221.141-1.475.212-1.849.483-.774.577-.894 1-.894 3.401 0 1.801-.024 2.142-.206 2.33-.254.282-.701.271-1.003-.024-.23-.224-.242-.388-.242-2.766 0-2.636-.073-3.083-.568-3.613-.109-.118-.967-.577-1.898-1.036-1.052-.494-2.103-1.106-2.732-1.589C8.062 5.816 6.72 5.168 4.23 4.78a39.238 39.238 0 0 1-1.342-.235c-.109-.082.544-.918 1.136-1.436 1.402-1.247 2.998-1.648 5.053-1.271zM5.076 6.384c1.233.306 2.623 1 3.892 1.942.532.388 1.209.883 1.511 1.106.81.6 2.152 1.353 3.167 1.777.496.212.967.459 1.052.565.109.129.145.871.145 2.719 0 2.224.036 2.601.23 3.013.399.847 1.04 1.236 2.019 1.236.629 0 1.064-.188 1.523-.671.52-.53.58-.859.58-3.107 0-2.554-.024-2.507 1.402-2.624 1.451-.129 3.252-.518 4.448-.953.604-.224 1.124-.377 1.148-.341.133.129-.774 2.436-1.305 3.331-.846 1.448-1.511 2.271-2.792 3.472-1.861 1.742-4.424 3.236-7.035 4.131l-.943.33-.931-.33c-2.792-.942-5.258-2.436-7.24-4.354-2.514-2.413-3.832-4.966-4.158-7.991-.121-1.13.06-3.072.338-3.531.097-.165 1.825.012 2.949.282z"/></symbol><symbol id="icon-facebook" viewBox="0 0 16 32"><path d="M14.143 15.972h-4.034v14.865H3.997V15.972H1.09v-5.224h2.907V7.367c0-2.418 1.142-6.203 6.166-6.203l4.527.019v5.071h-3.285c-.539 0-1.296.271-1.296 1.424v3.075h4.567l-.534 5.219z"/></symbol><symbol id="icon-github" viewBox="0 0 32 32"><path d="M16 0C7.212 0 0 7.212 0 16c0 7.499 5.262 14.312 12.25 16v-5.293c-.692.152-1.33.156-2.034-.052-.946-.279-1.714-.909-2.284-1.869-.364-.613-1.008-1.278-1.68-1.23l-.165-1.868c1.453-.124 2.711.886 3.457 2.14.332.558.713.884 1.203 1.029.473.14.982.072 1.574-.137.149-1.186.692-1.63 1.102-2.255v-.001c-4.167-.622-5.828-2.832-6.488-4.578-.874-2.317-.405-5.212 1.14-7.041.03-.036.084-.129.063-.194-.708-2.139.155-3.909.187-4.097.817.242.95-.243 3.551 1.337l.449.27c.188.112.129.048.317.034A13.544 13.544 0 0 1 16 7.723c1.136.015 2.273.178 3.404.484l.145.015c-.013-.002.04-.009.127-.062 3.248-1.968 3.132-1.324 4.003-1.608.032.188.883 1.987.182 4.099-.095.291 2.816 2.956 1.203 7.235-.659 1.746-2.32 3.957-6.487 4.578v.001c.534.814 1.176 1.247 1.173 2.927V32C26.738 30.312 32 23.499 32 16c0-8.788-7.212-16-16-16z"/></symbol><symbol id="icon-telegram" viewBox="0 0 44 32"><path d="m17.343 21.048-.675 8.86c.966 0 1.384-.387 1.885-.852l4.527-4.038 9.381 6.412c1.72.895 2.933.424 3.397-1.477l6.159-26.93c.546-2.374-.92-3.302-2.596-2.72L3.227 13.236c-2.47.895-2.433 2.18-.42 2.762l9.253 2.686L33.554 6.132c1.012-.625 1.931-.279 1.175.346l-17.386 14.57z"/></symbol><symbol id="icon-icecream" viewBox="0 0 127 32"><path d="M11.849.562C4.443 2.805 0 8.635 0 16.004c0 6.023 3.091 11.277 8.179 13.904 2.64 1.346 3.027.384.58-1.474-1.739-1.41-2.061-2.05-2.061-4.421 0-1.666-.386-3.011-.966-3.524-1.159-.961-1.288-3.46-.129-4.357.451-.384.902-1.666.966-2.819.322-4.229 4.894-8.201 9.467-8.201s9.145 3.973 9.466 8.201c.064 1.153.515 2.435.966 2.819 1.159.897 1.03 3.396-.129 4.357-.58.513-.966 1.858-.966 3.524 0 2.371-.322 3.011-2.061 4.421-2.705 2.114-1.932 2.883 1.095 1.025 4.25-2.627 7.406-8.33 7.406-13.391C31.813 5.944 21.252-2.257 11.85.562z"/><path d="M12.686 7.994c-1.159.513-2.125 1.153-2.125 1.538 0 .705 3.477 1.986 5.474 1.986s5.474-1.281 5.474-1.986c0-.769-3.993-2.499-5.603-2.499-.644.064-2.125.449-3.22.961zM45.851 11.326c-.966.256-1.159 1.089-1.159 5.703v5.382h4.572l-.193-5.574c-.193-5.831-.451-6.279-3.22-5.51zM53.386 11.646c-2.125 1.153-2.898 2.563-2.898 5.318 0 3.78 2.061 5.574 5.86 5.318 2.576-.192 2.833-.384 3.027-1.986s.064-1.73-1.932-1.602c-2.061.192-2.125.064-2.125-2.05s.129-2.243 1.996-2.05c1.546.128 2.125-.128 2.383-1.089.129-.641 0-1.538-.386-1.922-.902-.897-4.25-.897-5.925.064zM61.049 11.71c-.193.513-.258 3.011-.129 5.638l.193 4.741h4.186c3.864 0 4.186-.128 4.379-1.474.193-1.217-.064-1.41-2.06-1.41-1.288 0-2.319-.32-2.319-.641 0-.384.902-.641 1.932-.641 1.481 0 1.932-.256 1.932-1.281s-.451-1.281-1.932-1.281c-1.03 0-1.932-.32-1.932-.641 0-.384.837-.641 1.868-.641 1.804 0 3.027-1.41 2.254-2.627-.58-.961-7.985-.705-8.372.256zM73.993 11.518c-2.125.833-2.962 2.307-3.027 4.998-.065 4.613 1.803 6.215 6.633 5.767 1.868-.128 2.189-.448 2.189-1.794 0-1.41-.257-1.602-2.061-1.41-1.546.128-2.125-.064-2.447-1.089-.58-1.986.644-3.588 2.705-3.588 1.224 0 1.868-.384 1.996-1.217.451-2.05-2.833-3.011-5.989-1.666zM81.914 11.262c-.323.256-.515 2.883-.515 5.831v5.382l2.06-.192c1.61-.128 2.19-.577 2.512-1.794l.386-1.602.515 1.73c.387 1.474.837 1.794 2.512 1.794 2.769 0 3.091-.448 1.932-2.691-.708-1.41-.837-2.114-.322-2.627.837-.833.902-3.652.129-4.87-.644-1.025-8.371-1.858-9.208-.961zm5.28 3.46c0 .705-.257 1.281-.644 1.281-.322 0-.644-.577-.644-1.281s.322-1.281.644-1.281c.387 0 .644.577.644 1.281zM93.441 11.326c-.258.192-.451 2.819-.451 5.767v5.318h4.186c4.057 0 4.186-.064 4.186-1.602 0-1.346-.322-1.602-1.932-1.602-1.03 0-1.932-.32-1.932-.641 0-.384.708-.641 1.61-.641 1.159 0 1.61-.32 1.61-1.281s-.451-1.281-1.61-1.281c-.902 0-1.61-.32-1.61-.641 0-.384.902-.641 1.932-.641 1.61 0 1.932-.256 1.932-1.602 0-1.538-.193-1.602-3.735-1.602-2.061 0-3.992.192-4.186.448zM106.45 11.262c-1.16.32-4.122 8.842-3.542 10.252.515 1.281 3.413 1.153 4.186-.192.579-1.089.644-1.089 1.803 0 1.482 1.281 4.701 1.474 4.701.256 0-.384-.644-2.947-1.482-5.574-1.288-4.229-1.674-4.806-3.027-4.934-.902 0-2.061.064-2.64.192zm1.803 5.831c-.193.641-.322.256-.322-.769 0-1.089.129-1.538.322-1.153.129.448.129 1.346 0 1.922zM115.723 11.326c-.58.192-.837 1.986-.837 5.703v5.382h1.868c1.61 0 1.932-.32 2.189-1.794.257-1.666.257-1.666.772-.32.258.833.902 1.474 1.352 1.474.515 0 1.224-.641 1.546-1.474.515-1.346.58-1.346.58.384.065 1.602.257 1.794 2.061 1.602l1.996-.192.065-5.318c.129-4.934.064-5.318-1.288-5.638-2.061-.513-3.799.705-4.379 3.076l-.451 2.114-.708-2.243c-.902-3.011-2.254-3.78-4.765-2.755zM9.016 11.967c-.193.256-.386 1.089-.386 1.922 0 1.474.064 1.474 7.406 1.474s7.406 0 7.406-1.474c0-2.178-.58-2.435-2.64-1.41-2.318 1.217-7.213 1.217-9.531 0-1.03-.513-1.996-.705-2.254-.513zM7.148 17.669c-1.03 1.089.708 1.538 5.731 1.538h5.409v2.243c0 1.217.322 2.243.644 2.243.386 0 .644-.961.644-2.178 0-2.114.129-2.243 2.576-2.435 1.417-.128 2.576-.513 2.576-.833 0-.705-16.872-1.281-17.581-.577z"/><path d="M8.629 23.308c0 3.524 1.224 4.229 7.406 4.229s7.406-.705 7.406-4.229c0-1.538-.322-2.178-.966-2.178-.58 0-.966.577-.966 1.538 0 3.588-4.894 3.908-5.603.384-.322-1.858-.515-1.922-3.8-1.922H8.629v2.178zM12.622 30.548c.386 2.05 6.955 1.858 6.955-.128 0-.705-.837-.961-3.606-.961-3.027 0-3.542.192-3.349 1.089z"/></symbol><symbol id="icon-home" viewBox="0 0 35 32"><path d="M34.472 15.381c.633-.649.572-1.644-.136-2.222L18.735.425c-.708-.578-1.843-.566-2.537.027L.544 13.838c-.693.593-.727 1.587-.075 2.219l.392.381c.651.632 1.704.707 2.349.168l1.17-.977v14.308c0 .878.763 1.588 1.703 1.588h6.102c.94 0 1.703-.711 1.703-1.588v-10.01h7.783v10.01c-.014.877.659 1.588 1.6 1.588h6.467c.94 0 1.703-.711 1.703-1.588V15.831l.722.591c.399.327 1.234.065 1.866-.585l.444-.455z"/></symbol><symbol id="icon-apple" viewBox="0 0 32 32"><path d="M29.626 21.411c-1.292-.458-2.382-.344-3.242.018.145-.877.47-1.832 1.17-2.481a1.065 1.065 0 0 0-1.449-1.561c-1.229 1.14-1.706 2.748-1.874 4.081a4.036 4.036 0 0 0-1.058-.311l1.89-9.83a1.065 1.065 0 0 0-1.046-1.266h-.204c.094-.5.141-.997.137-1.47-.016-1.994-.903-3.495-2.374-4.017-1.41-.5-2.59-.35-3.507.066.145-.976.494-2.063 1.282-2.794A1.065 1.065 0 0 0 17.902.285c-1.32 1.225-1.815 2.965-1.982 4.386-.735-.348-1.644-.527-2.708-.33-1.094-1.571-2.613-2.296-4.089-1.942-1.451.349-2.358 1.115-2.901 1.962-.41-.899-.712-2.001-.452-3.036A1.065 1.065 0 0 0 3.705.806c-.439 1.746.095 3.476.729 4.758-1.016.137-2.117.65-3.049 1.866-.578.755-.773 1.698-.596 2.7a1.065 1.065 0 0 0-.674 1.197l3.809 19.809c.096.501.535.864 1.046.864h15.237c.511 0 .949-.362 1.046-.864l.038-.195c.287.198.596.363.927.487 1.266.471 2.447.278 3.044.118.316.085.795.179 1.364.179.506 0 1.084-.075 1.68-.297 2.36-.879 3.615-3.839 3.596-6.178-.015-1.904-.866-3.339-2.276-3.839zm-6.952-9.221c-.49 4.705-4.452 7.91-9.971 7.91s-9.481-3.204-9.971-7.91h19.942zm-6.642-4.675a1.047 1.047 0 0 0 1.86 0c.029-.048.29-.466.769-.777.629-.408 1.35-.46 2.203-.157.851.302.952 1.518.956 2.027.004.463-.064.962-.191 1.453h-7.126c.236-1.19.094-2.492-.289-3.669a2.12 2.12 0 0 1 1.047.346c.479.311.74.729.769.777zM3.077 8.724c.55-.719 1.182-1.068 1.932-1.069h.002c.57 0 1.016.208 1.066.232a1.05 1.05 0 0 0 1.079-.037c.331-.211.51-.592.481-.983-.006-.077-.116-1.893 1.983-2.397.876-.211 1.625.754 1.906 1.178.807 1.22 1.221 3.108.777 4.413H2.954c-.141-.443-.179-.943.122-1.336zM5.851 29.87 3.74 18.892c.138.133.281.263.427.389 2.208 1.901 5.239 2.948 8.535 2.948s6.328-1.047 8.535-2.948c.052-.044.102-.09.152-.135l-.431 2.243c-.02.007-.041.013-.061.021-1.41.5-2.261 1.935-2.276 3.839-.009 1.164.297 2.483.898 3.622l-.192.999H5.85zm21.711-.438c-.943.351-1.881.017-1.916.005a1.04 1.04 0 0 0-.768 0c-.009.004-.96.352-1.917-.005-1.338-.498-2.223-2.556-2.21-4.165.004-.466.095-1.578.858-1.849.349-.124.661-.175.939-.175 1.108 0 1.657.812 1.782 1.024a1.047 1.047 0 0 0 1.862 0c.156-.265.977-1.468 2.721-.849.763.271.854 1.383.858 1.849.013 1.609-.872 3.667-2.21 4.166z"/></symbol><symbol id="icon-bowl" viewBox="0 0 21 32"><path d="M2.333.144c-.35.188-.553.563-.553 1.006.006.813.209 1.556.614 2.2l.178.294-.338.381c-.381.425-.473.581-.645 1.088-.141.412-.153 1.162-.031 1.581.43 1.438 1.854 2.269 3.248 1.9.473-.125.761-.281 1.203-.656l.375-.312.35.175c.196.1.528.244.743.325l.381.138v.7c0 1.106.227 1.762.81 2.356s1.498.9 2.29.762c.565-.1 1.117-.381 1.492-.762.583-.594.81-1.25.81-2.356v-.7l.387-.138c.209-.081.54-.225.737-.325l.35-.175.375.312c.442.375.731.531 1.203.656 1.394.369 2.818-.462 3.248-1.9.123-.419.111-1.169-.031-1.581-.172-.506-.264-.662-.645-1.088l-.338-.381.178-.294c.405-.644.608-1.387.614-2.2 0-.444-.203-.819-.553-1.006L18.521 0H2.595l-.264.144zM17.068 2.1c0 .019-.178.313-.399.663-.651 1.031-.626 1.256.239 2.169.313.331.602.662.645.737.233.463-.233 1.038-.749.919-.123-.025-.393-.244-.786-.631-.786-.775-1.056-.862-1.658-.519-.694.4-1.578.806-2.008.925-.608.175-.817.306-.976.638-.129.256-.141.362-.141 1.362 0 1.231-.049 1.431-.399 1.6-.252.125-.301.125-.553 0-.35-.169-.399-.369-.399-1.6 0-1-.012-1.106-.135-1.362-.166-.325-.375-.463-.982-.638-.528-.15-1.308-.494-1.738-.775-.405-.263-.761-.362-1.044-.313-.184.037-.368.181-.86.662-.405.394-.694.625-.817.65-.51.119-.976-.463-.743-.919.043-.075.332-.406.645-.737.866-.912.89-1.138.239-2.169-.221-.35-.399-.644-.399-.663 0-.025 2.929-.038 6.508-.038s6.508.013 6.508.038zM.485 13.206c-.313.212-.485.512-.485.844 0 .225 3.119 16.925 3.229 17.275.055.194.282.425.522.55.227.125.387.125 6.809.125s6.582 0 6.809-.125c.239-.125.467-.356.522-.55.11-.35 3.229-17.05 3.229-17.275 0-.331-.172-.631-.485-.844l-.209-.144H.694l-.209.144zm18.21 2.275c-.061.5-.418 1.587-.682 2.081-1.283 2.375-3.714 3.819-6.729 3.988-2.278.131-4.206-.331-5.82-1.394a7 7 0 0 1-2.265-2.438c-.307-.544-.712-1.712-.774-2.237l-.043-.356h16.356l-.043.356zM4.39 21.919c2.634 1.775 6.569 2.244 9.885 1.169a10.688 10.688 0 0 0 3.18-1.688c.276-.219.295-.219.264-.081-.018.081-.381 1.994-.804 4.244s-.78 4.156-.798 4.231l-.031.144H5.035l-.031-.144c-.018-.075-.375-1.981-.798-4.231s-.786-4.163-.804-4.244c-.031-.137-.012-.137.264.081.16.125.491.356.724.519z"/></symbol></defs></svg>